<svg xmlns="http://www.w3.org/2000/svg" fill="none" viewBox="0 0 14 14" height="14" width="14">
<defs>
  <!-- subtle variation of #ffb7a5 -->
  <linearGradient id="palette_bg" x1="2" y1="2" x2="12" y2="12" gradientUnits="userSpaceOnUse">
    <stop stop-color="#FAA893"/>
    <stop offset="1" stop-color="#FF9F8D"/>
  </linearGradient>
</defs>

<!-- Palette body -->
<path fill="url(#palette_bg)" fill-rule="evenodd"
  d="M4.35.577a7 7 0 0 1 9.381 4.085c.27.758.15 1.626-.315 2.282A2.53 2.53 0 0 1 11.37 8H9.5a1.5 1.5 0 0 0-.455 2.931c.55.205.935.702.972 1.286a1.43 1.43 0 0 1-1.01 1.524A6.8 6.8 0 0 1 7.129 14a7 7 0 0 1-3.636-1.021A7.06 7.06 0 0 1 .15 6.517a7.06 7.06 0 0 1 4.2-5.94Z"
  clip-rule="evenodd"/>

<!-- Color wells -->
<!-- Blue -->
<circle cx="4.5" cy="5.5" r="1.5" fill="#3A7BFF"/>
<!-- Red -->
<circle cx="8.5" cy="4" r="1.5" fill="#FF3A3A"/>
<!-- Yellow -->
<circle cx="4.5" cy="9.5" r="1" fill="#FFD93A"/>
</svg>
